<svg width="97" height="30" viewBox="0 0 97 30" fill="none" xmlns="http://www.w3.org/2000/svg">
<path fill-rule="evenodd" clip-rule="evenodd" d="M21.25 9.06255L15 18.4376L8.75003 9.06255C8.66795 8.93944 8.56243 8.83369 8.43949 8.75136C8.31654 8.66903 8.17859 8.61171 8.0335 8.5827C7.88841 8.55368 7.73902 8.55352 7.59387 8.58224C7.44872 8.61095 7.31064 8.66798 7.18753 8.75005C7.06441 8.83213 6.95867 8.93765 6.87634 9.06059C6.794 9.18353 6.73669 9.32149 6.70767 9.46658C6.67865 9.61167 6.6785 9.76106 6.70721 9.90621C6.73593 10.0514 6.79295 10.1894 6.87503 10.3126L13.96 20.9401C14.0742 21.1112 14.2288 21.2516 14.4103 21.3487C14.5917 21.4458 14.7943 21.4966 15 21.4966C15.2058 21.4966 15.4084 21.4458 15.5898 21.3487C15.7712 21.2516 15.9259 21.1112 16.04 20.9401L23.125 10.3126C23.2071 10.1894 23.2641 10.0514 23.2928 9.90621C23.3216 9.76106 23.3214 9.61167 23.2924 9.46658C23.2634 9.32149 23.2061 9.18353 23.1237 9.06059C23.0414 8.93765 22.9356 8.83213 22.8125 8.75005C22.6894 8.66798 22.5513 8.61095 22.4062 8.58224C22.261 8.55352 22.1116 8.55368 21.9666 8.5827C21.8215 8.61171 21.6835 8.66903 21.5606 8.75136C21.4376 8.83369 21.3321 8.93944 21.25 9.06255Z" fill="white"/>
<path d="M39.364 21.626C38.536 21.626 37.792 21.482 37.132 21.194C36.484 20.894 35.974 20.486 35.602 19.97C35.23 19.442 35.038 18.836 35.026 18.152H36.772C36.832 18.74 37.072 19.238 37.492 19.646C37.924 20.042 38.548 20.24 39.364 20.24C40.144 20.24 40.756 20.048 41.2 19.664C41.656 19.268 41.884 18.764 41.884 18.152C41.884 17.672 41.752 17.282 41.488 16.982C41.224 16.682 40.894 16.454 40.498 16.298C40.102 16.142 39.568 15.974 38.896 15.794C38.068 15.578 37.402 15.362 36.898 15.146C36.406 14.93 35.98 14.594 35.62 14.138C35.272 13.67 35.098 13.046 35.098 12.266C35.098 11.582 35.272 10.976 35.62 10.448C35.968 9.92 36.454 9.512 37.078 9.224C37.714 8.936 38.44 8.792 39.256 8.792C40.432 8.792 41.392 9.086 42.136 9.674C42.892 10.262 43.318 11.042 43.414 12.014H41.614C41.554 11.534 41.302 11.114 40.858 10.754C40.414 10.382 39.826 10.196 39.094 10.196C38.41 10.196 37.852 10.376 37.42 10.736C36.988 11.084 36.772 11.576 36.772 12.212C36.772 12.668 36.898 13.04 37.15 13.328C37.414 13.616 37.732 13.838 38.104 13.994C38.488 14.138 39.022 14.306 39.706 14.498C40.534 14.726 41.2 14.954 41.704 15.182C42.208 15.398 42.64 15.74 43 16.208C43.36 16.664 43.54 17.288 43.54 18.08C43.54 18.692 43.378 19.268 43.054 19.808C42.73 20.348 42.25 20.786 41.614 21.122C40.978 21.458 40.228 21.626 39.364 21.626ZM50.2525 21.662C49.3285 21.662 48.4885 21.452 47.7325 21.032C46.9885 20.612 46.4005 20.018 45.9685 19.25C45.5485 18.47 45.3385 17.57 45.3385 16.55C45.3385 15.542 45.5545 14.654 45.9865 13.886C46.4305 13.106 47.0305 12.512 47.7865 12.104C48.5425 11.684 49.3885 11.474 50.3245 11.474C51.2605 11.474 52.1065 11.684 52.8625 12.104C53.6185 12.512 54.2125 13.1 54.6445 13.868C55.0885 14.636 55.3105 15.53 55.3105 16.55C55.3105 17.57 55.0825 18.47 54.6265 19.25C54.1825 20.018 53.5765 20.612 52.8085 21.032C52.0405 21.452 51.1885 21.662 50.2525 21.662ZM50.2525 20.222C50.8405 20.222 51.3925 20.084 51.9085 19.808C52.4245 19.532 52.8385 19.118 53.1505 18.566C53.4745 18.014 53.6365 17.342 53.6365 16.55C53.6365 15.758 53.4805 15.086 53.1685 14.534C52.8565 13.982 52.4485 13.574 51.9445 13.31C51.4405 13.034 50.8945 12.896 50.3065 12.896C49.7065 12.896 49.1545 13.034 48.6505 13.31C48.1585 13.574 47.7625 13.982 47.4625 14.534C47.1625 15.086 47.0125 15.758 47.0125 16.55C47.0125 17.354 47.1565 18.032 47.4445 18.584C47.7445 19.136 48.1405 19.55 48.6325 19.826C49.1245 20.09 49.6645 20.222 50.2525 20.222ZM59.1021 13.238C59.3901 12.674 59.7981 12.236 60.3261 11.924C60.8661 11.612 61.5201 11.456 62.2881 11.456V13.148H61.8561C60.0201 13.148 59.1021 14.144 59.1021 16.136V21.5H57.4641V11.636H59.1021V13.238ZM66.177 12.986V18.8C66.177 19.28 66.279 19.622 66.483 19.826C66.687 20.018 67.041 20.114 67.545 20.114H68.751V21.5H67.275C66.363 21.5 65.679 21.29 65.223 20.87C64.767 20.45 64.539 19.76 64.539 18.8V12.986H63.261V11.636H64.539V9.152H66.177V11.636H68.751V12.986H66.177ZM77.1724 13.472C77.5084 12.884 78.0004 12.404 78.6484 12.032C79.2964 11.66 80.0344 11.474 80.8624 11.474C81.7504 11.474 82.5484 11.684 83.2564 12.104C83.9644 12.524 84.5224 13.118 84.9304 13.886C85.3384 14.642 85.5424 15.524 85.5424 16.532C85.5424 17.528 85.3384 18.416 84.9304 19.196C84.5224 19.976 83.9584 20.582 83.2384 21.014C82.5304 21.446 81.7384 21.662 80.8624 21.662C80.0104 21.662 79.2604 21.476 78.6124 21.104C77.9764 20.732 77.4964 20.258 77.1724 19.682V21.5H75.5344V8.18H77.1724V13.472ZM83.8684 16.532C83.8684 15.788 83.7184 15.14 83.4184 14.588C83.1184 14.036 82.7104 13.616 82.1944 13.328C81.6904 13.04 81.1324 12.896 80.5204 12.896C79.9204 12.896 79.3624 13.046 78.8464 13.346C78.3424 13.634 77.9344 14.06 77.6224 14.624C77.3224 15.176 77.1724 15.818 77.1724 16.55C77.1724 17.294 77.3224 17.948 77.6224 18.512C77.9344 19.064 78.3424 19.49 78.8464 19.79C79.3624 20.078 79.9204 20.222 80.5204 20.222C81.1324 20.222 81.6904 20.078 82.1944 19.79C82.7104 19.49 83.1184 19.064 83.4184 18.512C83.7184 17.948 83.8684 17.288 83.8684 16.532ZM96.1945 11.636L90.2545 26.144H88.5625L90.5065 21.392L86.5285 11.636H88.3465L91.4425 19.628L94.5025 11.636H96.1945Z" fill="white"/>
</svg>
